<?xml version="1.0" encoding="UTF-8"?> <svg xmlns="http://www.w3.org/2000/svg" width="201" height="63" viewBox="0 0 201 63" fill="none"><g clip-path="url(#clip0_66_2876)"><path d="M32.5376 62.9997C14.8709 62.9997 0.5 48.8685 0.5 31.4992C0.5 14.1298 14.8709 -0.000291626 32.5376 -0.000291626C40.6964 -0.012511 48.5501 3.04901 54.4842 8.5533C55.387 9.37423 55.4412 10.7595 54.6062 11.647C53.7713 12.5346 52.3623 12.5879 51.4595 11.767C51.4505 11.7592 51.4426 11.7515 51.4336 11.7437C46.3243 7.00477 39.562 4.36982 32.5376 4.37982C17.3283 4.37982 4.95396 16.5459 4.95396 31.4992C4.95396 46.4524 17.3283 58.6196 32.5376 58.6196C39.8569 58.6396 46.8802 55.7791 52.0426 50.677C52.9261 49.8349 54.3362 49.8561 55.1938 50.7236C56.0321 51.5734 56.0321 52.9242 55.1938 53.774C49.1975 59.7005 41.0399 63.023 32.5376 62.9997Z" fill="url(#paint0_linear_66_2876)"></path><path d="M32.5376 54.4153C19.6864 54.4153 9.23053 44.1354 9.23053 31.4994C9.19776 21.4884 15.8053 12.6249 25.5244 9.64001C26.6848 9.23677 27.9582 9.83441 28.3683 10.9742C28.7785 12.115 28.1706 13.3669 27.0113 13.7702C26.9628 13.7868 26.9142 13.8024 26.8645 13.8157C19.0017 16.2307 13.6585 23.4013 13.6856 31.4994C13.6856 41.7193 22.1427 50.0352 32.5376 50.0352C34.3126 50.0352 36.0797 49.7908 37.7858 49.3065C38.9677 48.9688 40.2037 49.6375 40.5472 50.7995C40.8907 51.9614 40.2105 53.1767 39.0287 53.5144C36.9192 54.1131 34.734 54.4164 32.5376 54.4153Z" fill="url(#paint1_linear_66_2876)"></path><path d="M32.5376 45.8306C24.4883 45.8306 17.9622 39.4154 17.9622 31.5006C17.9622 27.5559 19.6152 23.7868 22.5325 21.0796C23.4263 20.2487 24.8363 20.2887 25.6815 21.1674C26.5266 22.0461 26.486 23.4324 25.5922 24.2622C23.5585 26.1362 22.4082 28.7578 22.4207 31.4983C22.4229 36.9937 26.956 41.446 32.5455 41.4438C35.2549 41.4427 37.8513 40.373 39.7518 38.4756C40.6037 37.6025 42.0138 37.5736 42.9019 38.4112C43.79 39.2488 43.8193 40.6351 42.9674 41.5083C42.9539 41.5227 42.9403 41.536 42.9256 41.5494C40.1936 44.2965 36.4458 45.8406 32.5376 45.8295V45.8306Z" fill="url(#paint2_linear_66_2876)"></path><path d="M89.1148 35.9531C88.7058 35.9531 88.4832 36.1753 88.2979 36.3553C86.4416 38.1804 84.7705 38.7992 82.2452 38.7992C77.8647 38.7992 74.5621 35.3311 74.5621 30.801C74.5621 26.2709 77.9042 22.8028 82.2452 22.8028C84.5479 22.8028 86.1817 23.606 88.0742 25.0656C88.3002 25.2878 88.7058 25.4678 88.8911 25.4678C89.5227 25.4678 90.1543 24.8468 90.1543 24.2258C90.1543 24.0037 89.9283 23.606 89.7453 23.2038C88.0742 21.7908 85.9953 20.37 82.2452 20.37C76.4162 20.37 72.0357 24.8601 72.0357 30.8121V31.0343C72.0357 36.9851 76.4162 41.4763 82.2452 41.4763C85.3648 41.4763 87.6686 40.6732 89.9283 38.4104C90.1543 38.1882 90.3374 37.7894 90.3374 37.6072C90.3396 36.5741 89.708 35.9531 89.1148 35.9531Z" fill="#001429"></path><path d="M99.9164 20.4031C99.2848 20.4031 98.6544 21.0241 98.6544 21.6439V39.4176C98.6544 40.0386 99.2848 40.6585 99.9164 40.6585C100.548 40.6585 101.178 40.0386 101.178 39.4176V21.6073C101.181 21.0241 100.55 20.4031 99.9164 20.4031Z" fill="#001429"></path><path d="M119.485 29.6021L126.581 22.6293C126.989 22.2282 126.989 22.0094 126.989 21.8261C126.989 21.2062 126.358 20.5853 125.727 20.5853C125.318 20.5853 125.096 20.8074 124.91 20.9874L113.433 32.4859V21.8628C113.433 21.2429 112.802 20.6219 112.171 20.6219C111.541 20.6219 110.909 21.0241 110.909 21.8628V39.6765C110.909 40.2974 111.539 40.9173 112.171 40.9173C112.803 40.9173 113.433 40.2974 113.433 39.6765V35.5885L117.815 31.2806L125.314 40.2974C125.54 40.6984 125.945 40.6984 126.353 40.6984C126.985 40.6984 127.616 40.0786 127.616 39.4576C127.616 39.0566 127.39 38.8367 127.207 38.6545L119.485 29.6021Z" fill="#001429"></path><path d="M148.594 38.399H138.199V21.6073C138.199 20.9874 137.567 20.3664 136.937 20.3664C136.306 20.3664 135.674 20.9874 135.674 21.6073V39.421C135.674 40.0419 136.305 40.6618 136.937 40.6618H148.595C149.225 40.6618 149.857 40.0419 149.857 39.421C149.857 38.8367 149.224 38.399 148.594 38.399Z" fill="#001429"></path><path d="M171.279 20.4031C170.648 20.4031 170.016 21.0241 170.016 21.6439V32.267C170.016 36.355 167.937 38.6178 163.964 38.6178C160.214 38.6178 157.913 36.1739 157.913 32.0838V21.6417C157.913 21.0218 157.281 20.4009 156.651 20.4009C156.02 20.4009 155.393 21.0241 155.393 21.6439V32.267C155.393 37.5992 158.735 41.0639 163.933 41.0639C169.13 41.0639 172.472 37.5958 172.472 32.0471V21.605C172.541 21.0241 171.91 20.4031 171.279 20.4031Z" fill="#001429"></path><path d="M200.5 21.6439V39.4565C200.482 40.0675 199.859 40.6684 199.238 40.6684C198.616 40.6684 197.976 40.0486 197.976 39.4276V25.2942L191.923 34.0911C191.882 34.1644 191.834 34.2333 191.78 34.2977C191.763 34.3188 191.743 34.3388 191.724 34.3577C191.505 34.5832 191.202 34.7109 190.885 34.712H190.801L190.716 34.702C190.345 34.6454 190.023 34.4199 189.845 34.0944L183.794 25.2975V39.421C183.794 40.0419 183.162 40.6618 182.532 40.6618C181.901 40.6618 181.267 40.0419 181.267 39.421V21.6473C181.267 21.0263 181.899 20.4064 182.53 20.4064H182.716C183.347 20.4064 183.533 20.8074 183.755 21.0263L190.885 31.2528L198.013 21.0263C198.239 20.8041 198.421 20.4064 199.053 20.4064H199.232C199.868 20.4031 200.5 21.023 200.5 21.6439Z" fill="#001429"></path></g><defs><linearGradient id="paint0_linear_66_2876" x1="27.5006" y1="45.0805" x2="36.3635" y2="-14.7968" gradientUnits="userSpaceOnUse"><stop stop-color="#8CFFC6"></stop><stop offset="0.6" stop-color="#1324BF"></stop></linearGradient><linearGradient id="paint1_linear_66_2876" x1="24.9335" y1="10.6742" x2="24.9335" y2="41.7171" gradientUnits="userSpaceOnUse"><stop offset="0.47" stop-color="#1324BF"></stop><stop offset="1" stop-color="#8CFFC6"></stop></linearGradient><linearGradient id="paint2_linear_66_2876" x1="24.6601" y1="23.579" x2="31.0212" y2="38.0706" gradientUnits="userSpaceOnUse"><stop stop-color="#1324BF"></stop><stop offset="1" stop-color="#8CFFC6"></stop></linearGradient><clipPath id="clip0_66_2876"><rect width="200" height="63" fill="white" transform="translate(0.5)"></rect></clipPath></defs></svg> 